<svg preserveAspectRatio="none" overflow="visible" style="display: block;" width="12" height="12" viewBox="0 0 12 12" fill="none" xmlns="http://www.w3.org/2000/svg">
<g id="Frame">
<path id="Vector" d="M10.875 5.0625C11.0242 5.0625 11.1673 5.00324 11.2727 4.89775C11.3782 4.79226 11.4375 4.64918 11.4375 4.5V3C11.4375 2.75136 11.3387 2.5129 11.1629 2.33709C10.9871 2.16127 10.7486 2.0625 10.5 2.0625H1.5C1.25136 2.0625 1.0129 2.16127 0.837087 2.33709C0.661272 2.5129 0.5625 2.75136 0.5625 3V4.5C0.5625 4.64918 0.621763 4.79226 0.727252 4.89775C0.832742 5.00324 0.975816 5.0625 1.125 5.0625C1.37364 5.0625 1.6121 5.16127 1.78791 5.33709C1.96373 5.5129 2.0625 5.75136 2.0625 6C2.0625 6.24864 1.96373 6.4871 1.78791 6.66291C1.6121 6.83873 1.37364 6.9375 1.125 6.9375C0.975816 6.9375 0.832742 6.99676 0.727252 7.10225C0.621763 7.20774 0.5625 7.35082 0.5625 7.5V9C0.5625 9.24864 0.661272 9.4871 0.837087 9.66291C1.0129 9.83873 1.25136 9.9375 1.5 9.9375H10.5C10.7486 9.9375 10.9871 9.83873 11.1629 9.66291C11.3387 9.4871 11.4375 9.24864 11.4375 9V7.5C11.4375 7.35082 11.3782 7.20774 11.2727 7.10225C11.1673 6.99676 11.0242 6.9375 10.875 6.9375C10.6264 6.9375 10.3879 6.83873 10.2121 6.66291C10.0363 6.4871 9.9375 6.24864 9.9375 6C9.9375 5.75136 10.0363 5.5129 10.2121 5.33709C10.3879 5.16127 10.6264 5.0625 10.875 5.0625ZM1.6875 7.98469C2.11972 7.86247 2.50023 7.6025 2.77121 7.24428C3.04219 6.88606 3.18882 6.44917 3.18882 6C3.18882 5.55083 3.04219 5.11394 2.77121 4.75572C2.50023 4.3975 2.11972 4.13753 1.6875 4.01531V3.1875H4.125V8.8125H1.6875V7.98469ZM10.3125 7.98469V8.8125H5.25V3.1875H10.3125V4.01531C9.88028 4.13753 9.49977 4.3975 9.22879 4.75572C8.95781 5.11394 8.81118 5.55083 8.81118 6C8.81118 6.44917 8.95781 6.88606 9.22879 7.24428C9.49977 7.6025 9.88028 7.86247 10.3125 7.98469Z" fill="#0E0E0E"/>
</g>
</svg>
