<svg preserveAspectRatio="none" width="100%" height="100%" overflow="visible" style="display: block;" viewBox="0 0 20.94 20" fill="none" xmlns="http://www.w3.org/2000/svg">
<g id="svgexport-5 1" clip-path="url(#clip0_71_416)">
<path id="question_mark_24dp_FFFFFF_FILL0_wght400_GRAD0_opsz24" d="M8.99661 13.6842C8.94278 12.6479 9.07211 11.6103 9.37869 10.619C9.76201 9.82878 10.3144 9.13254 10.9968 8.57962C11.5886 8.07669 12.1387 7.52662 12.6416 6.93478C13.0125 6.48756 13.2128 5.92341 13.2071 5.34247C13.2166 5.01041 13.1572 4.67999 13.0326 4.37205C12.908 4.06412 12.7209 3.78531 12.4831 3.55333C12.2118 3.30661 11.8939 3.11668 11.5481 2.99463C11.2023 2.87259 10.8356 2.82093 10.4695 2.8427C10.0902 2.81704 9.70993 2.87704 9.35691 3.01825C9.0039 3.15945 8.68716 3.37825 8.43016 3.65845C7.99969 4.14407 7.66491 4.70665 7.44345 5.31664L4.73354 4.15803C5.11796 3.01182 5.82066 1.99864 6.75952 1.23698C7.80649 0.389941 9.1247 -0.0494425 10.4705 1.16481e-05C11.2468 -0.0505282 12.0251 0.0602126 12.7565 0.325214C13.4878 0.590215 14.1564 1.00374 14.7202 1.5398C15.2019 2.02589 15.5816 2.60344 15.8368 3.23845C16.0921 3.87345 16.2178 4.55306 16.2064 5.23735C16.2295 6.02504 16.0338 6.80373 15.641 7.48689C15.1372 8.26277 14.5405 8.97426 13.8643 9.60554C13.2383 10.1383 12.7088 10.7748 12.2987 11.4873C12.0743 12.1968 11.9808 12.9412 12.0227 13.6842H8.99661ZM10.4705 20C10.1935 20.0041 9.91865 19.9513 9.66285 19.845C9.40705 19.7387 9.17575 19.5812 8.98323 19.382C8.78406 19.1895 8.62648 18.9582 8.52018 18.7024C8.41389 18.4466 8.36114 18.1717 8.36522 17.8948C8.36114 17.6178 8.41389 17.3429 8.52018 17.0871C8.62648 16.8313 8.78406 16.6 8.98323 16.4075C9.17575 16.2083 9.40705 16.0507 9.66285 15.9444C9.91865 15.8381 10.1935 15.7854 10.4705 15.7895C10.7475 15.7854 11.0223 15.8381 11.2781 15.9444C11.5339 16.0507 11.7652 16.2083 11.9577 16.4075C12.1569 16.6 12.3145 16.8313 12.4208 17.0871C12.5271 17.3429 12.5798 17.6178 12.5757 17.8948C12.5798 18.1717 12.5271 18.4466 12.4208 18.7024C12.3145 18.9582 12.1569 19.1895 11.9577 19.382C11.7652 19.5812 11.5339 19.7387 11.2781 19.845C11.0223 19.9513 10.7475 20.0041 10.4705 20Z" fill="var(--fill-0, black)"/>
</g>
<defs>
<clipPath id="clip0_71_416">
<rect width="20.94" height="20" fill="white"/>
</clipPath>
</defs>
</svg>
