<svg preserveAspectRatio="none" overflow="visible" style="display: block;" width="32" height="32" viewBox="0 0 32 32" fill="none" xmlns="http://www.w3.org/2000/svg">
<g id="Frame">
<path id="Vector" d="M30.9188 18.6063L24.9188 4.60625C24.8417 4.4264 24.7136 4.2731 24.5503 4.16534C24.387 4.05758 24.1957 4.00009 24 4H8C7.80434 4.00009 7.61301 4.05758 7.4497 4.16534C7.2864 4.2731 7.15829 4.4264 7.08125 4.60625L1.08125 18.6063C1.01611 18.7583 0.989718 18.9242 1.00443 19.0889C1.01914 19.2537 1.0745 19.4123 1.16555 19.5504C1.2566 19.6885 1.38048 19.8019 1.52612 19.8803C1.67175 19.9588 1.83457 19.9999 2 20H15V26H12C11.7348 26 11.4804 26.1054 11.2929 26.2929C11.1054 26.4804 11 26.7348 11 27C11 27.2652 11.1054 27.5196 11.2929 27.7071C11.4804 27.8946 11.7348 28 12 28H20C20.2652 28 20.5196 27.8946 20.7071 27.7071C20.8946 27.5196 21 27.2652 21 27C21 26.7348 20.8946 26.4804 20.7071 26.2929C20.5196 26.1054 20.2652 26 20 26H17V20H24V24C24 24.2652 24.1054 24.5196 24.2929 24.7071C24.4804 24.8946 24.7348 25 25 25C25.2652 25 25.5196 24.8946 25.7071 24.7071C25.8946 24.5196 26 24.2652 26 24V20H30C30.1654 19.9999 30.3283 19.9588 30.4739 19.8803C30.6195 19.8019 30.7434 19.6885 30.8345 19.5504C30.9255 19.4123 30.9809 19.2537 30.9956 19.0889C31.0103 18.9242 30.9839 18.7583 30.9188 18.6063ZM3.51625 18L8.66 6H23.34L28.4837 18H3.51625Z" fill="#6F6F6E"/>
</g>
</svg>
