<svg preserveAspectRatio="none" width="100%" height="100%" overflow="visible" style="display: block;" viewBox="0 0 20.94 20.94" fill="none" xmlns="http://www.w3.org/2000/svg">
<g id="Group 21">
<path id="ic_person_24px" d="M10.47 10.47C11.5054 10.47 12.5175 10.163 13.3784 9.58775C14.2393 9.01252 14.9103 8.19492 15.3065 7.23835C15.7027 6.28178 15.8064 5.2292 15.6044 4.2137C15.4024 3.19821 14.9038 2.26543 14.1717 1.5333C13.4396 0.801171 12.5068 0.302585 11.4913 0.100591C10.4758 -0.101402 9.42322 0.00226839 8.46665 0.398493C7.51008 0.794718 6.69249 1.4657 6.11726 2.32659C5.54203 3.18748 5.235 4.19962 5.235 5.235C5.23487 5.92251 5.37019 6.60331 5.63322 7.23851C5.89626 7.8737 6.28186 8.45086 6.768 8.937C7.25414 9.42314 7.8313 9.80874 8.4665 10.0718C9.1017 10.3348 9.78249 10.4701 10.47 10.47ZM10.47 13.0875C6.97533 13.0875 0 14.8408 0 18.3225V20.94H20.94V18.3225C20.94 14.8408 13.9647 13.0875 10.47 13.0875Z" fill="var(--fill-0, white)"/>
</g>
</svg>
