<svg preserveAspectRatio="none" width="100%" height="100%" overflow="visible" style="display: block;" viewBox="0 0 24 24" fill="none" xmlns="http://www.w3.org/2000/svg">
<g id="Frame">
<path id="Vector" d="M19.875 6.375H3.375V4.5C3.375 4.20163 3.25647 3.91548 3.0455 3.7045C2.83452 3.49353 2.54837 3.375 2.25 3.375C1.95163 3.375 1.66548 3.49353 1.4545 3.7045C1.24353 3.91548 1.125 4.20163 1.125 4.5V19.5C1.125 19.7984 1.24353 20.0845 1.4545 20.2955C1.66548 20.5065 1.95163 20.625 2.25 20.625C2.54837 20.625 2.83452 20.5065 3.0455 20.2955C3.25647 20.0845 3.375 19.7984 3.375 19.5V16.875H21.75V19.5C21.75 19.7984 21.8685 20.0845 22.0795 20.2955C22.2905 20.5065 22.5766 20.625 22.875 20.625C23.1734 20.625 23.4595 20.5065 23.6705 20.2955C23.8815 20.0845 24 19.7984 24 19.5V10.5C23.9988 9.40636 23.5638 8.35787 22.7904 7.58455C22.0171 6.81124 20.9686 6.37624 19.875 6.375ZM9.375 14.625H3.375V8.625H9.375V14.625ZM21.75 14.625H11.625V8.625H19.875C20.3723 8.625 20.8492 8.82254 21.2008 9.17417C21.5525 9.52581 21.75 10.0027 21.75 10.5V14.625Z" fill="var(--fill-0, #FFD614)"/>
</g>
</svg>
