<svg preserveAspectRatio="none" width="100%" height="100%" overflow="visible" style="display: block;" viewBox="0 0 36 36" fill="none" xmlns="http://www.w3.org/2000/svg">
<g id="Frame">
<path id="Vector" d="M18 5.0625C15.2187 5.0625 12.4999 5.88725 10.1873 7.43246C7.87473 8.97767 6.0723 11.1739 5.00794 13.7435C3.94359 16.3131 3.6651 19.1406 4.20771 21.8685C4.75031 24.5963 6.08963 27.102 8.05631 29.0687C10.023 31.0354 12.5287 32.3747 15.2565 32.9173C17.9844 33.4599 20.8119 33.1814 23.3815 32.1171C25.9511 31.0527 28.1473 29.2503 29.6925 26.9377C31.2377 24.6251 32.0625 21.9063 32.0625 19.125C32.0584 15.3966 30.5755 11.8222 27.9392 9.18583C25.3028 6.54949 21.7284 5.06659 18 5.0625ZM18 29.8125C15.8862 29.8125 13.8199 29.1857 12.0623 28.0113C10.3048 26.837 8.93495 25.1678 8.12604 23.2149C7.31713 21.262 7.10548 19.1131 7.51786 17.04C7.93024 14.9668 8.94812 13.0625 10.4428 11.5678C11.9375 10.0731 13.8418 9.05524 15.915 8.64286C17.9881 8.23048 20.137 8.44213 22.0899 9.25104C24.0428 10.0599 25.712 11.4298 26.8863 13.1873C28.0607 14.9449 28.6875 17.0112 28.6875 19.125C28.6845 21.9586 27.5576 24.6753 25.5539 26.6789C23.5503 28.6826 20.8336 29.8095 18 29.8125ZM4.56891 10.1939C4.41194 10.3509 4.22558 10.4754 4.02049 10.5603C3.8154 10.6453 3.59558 10.689 3.37359 10.689C3.1516 10.689 2.93179 10.6453 2.7267 10.5603C2.5216 10.4754 2.33525 10.3509 2.17828 10.1939C2.02131 10.0369 1.89679 9.85058 1.81184 9.64549C1.72689 9.4404 1.68317 9.22058 1.68317 8.99859C1.68317 8.7766 1.72689 8.55679 1.81184 8.35169C1.89679 8.1466 2.02131 7.96025 2.17828 7.80328L6.67828 3.30328C6.9953 2.98626 7.42526 2.80817 7.87359 2.80817C8.32192 2.80817 8.75189 2.98626 9.06891 3.30328C9.38592 3.6203 9.56402 4.05026 9.56402 4.49859C9.56402 4.94692 9.38592 5.37689 9.06891 5.69391L4.56891 10.1939ZM33.8189 10.1939C33.6621 10.3512 33.4758 10.4761 33.2707 10.5612C33.0656 10.6464 32.8457 10.6902 32.6236 10.6902C32.4015 10.6902 32.1816 10.6464 31.9765 10.5612C31.7713 10.4761 31.5851 10.3512 31.4283 10.1939L26.9283 5.69391C26.7713 5.53694 26.6468 5.35058 26.5618 5.14549C26.4769 4.9404 26.4332 4.72058 26.4332 4.49859C26.4332 4.2766 26.4769 4.05679 26.5618 3.8517C26.6468 3.6466 26.7713 3.46025 26.9283 3.30328C27.0853 3.14631 27.2716 3.02179 27.4767 2.93684C27.6818 2.85189 27.9016 2.80817 28.1236 2.80817C28.3456 2.80817 28.5654 2.85189 28.7705 2.93684C28.9756 3.02179 29.1619 3.14631 29.3189 3.30328L33.8189 7.80328C33.9762 7.96006 34.1011 8.14634 34.1862 8.35146C34.2714 8.55658 34.3152 8.7765 34.3152 8.99859C34.3152 9.22069 34.2714 9.44061 34.1862 9.64572C34.1011 9.85084 33.9762 10.0371 33.8189 10.1939ZM24.75 17.4375C25.1976 17.4375 25.6268 17.6153 25.9432 17.9318C26.2597 18.2482 26.4375 18.6774 26.4375 19.125C26.4375 19.5726 26.2597 20.0018 25.9432 20.3182C25.6268 20.6347 25.1976 20.8125 24.75 20.8125H18C17.5524 20.8125 17.1232 20.6347 16.8068 20.3182C16.4903 20.0018 16.3125 19.5726 16.3125 19.125V12.375C16.3125 11.9274 16.4903 11.4982 16.8068 11.1818C17.1232 10.8653 17.5524 10.6875 18 10.6875C18.4476 10.6875 18.8768 10.8653 19.1932 11.1818C19.5097 11.4982 19.6875 11.9274 19.6875 12.375V17.4375H24.75Z" fill="var(--fill-0, #FF9637)"/>
</g>
</svg>
