<svg preserveAspectRatio="none" width="100%" height="100%" overflow="visible" style="display: block;" viewBox="0 0 24 24" fill="none" xmlns="http://www.w3.org/2000/svg">
<g id="Frame" opacity="0.8">
<path id="Vector" d="M14.25 1.875H9.75C6.17531 1.875 3.375 6.3225 3.375 12C3.375 17.6775 6.17531 22.125 9.75 22.125H14.25C17.8247 22.125 20.625 17.6775 20.625 12C20.625 6.3225 17.8247 1.875 14.25 1.875ZM17.7384 16.125H15.5916C15.8564 15.144 16.0226 14.139 16.0875 13.125H18.3309C18.2571 14.1455 18.0581 15.153 17.7384 16.125ZM16.0875 10.875C16.0226 9.86097 15.8564 8.85597 15.5916 7.875H17.7384C18.0581 8.84696 18.2571 9.85451 18.3309 10.875H16.0875ZM16.6153 5.625H14.7403C14.4767 5.09608 14.1627 4.59377 13.8028 4.125H14.25C14.7534 4.125 15.6797 4.33594 16.6153 5.625ZM7.00969 17.7975C6.11625 16.2666 5.625 14.2078 5.625 12C5.625 9.79219 6.11625 7.73344 7.00969 6.2025C8.0625 4.395 9.17906 4.125 9.75 4.125C10.3209 4.125 11.4375 4.395 12.4903 6.2025C13.3837 7.73344 13.875 9.79219 13.875 12C13.875 14.2078 13.3837 16.2666 12.4903 17.7975C11.4375 19.605 10.3209 19.875 9.75 19.875C9.17906 19.875 8.0625 19.605 7.00969 17.7975ZM14.25 19.875H13.8009C14.1608 19.4062 14.4748 18.9039 14.7384 18.375H16.6134C15.6797 19.6641 14.7534 19.875 14.25 19.875Z" fill="#ff9637"/>
</g>
</svg>
