<svg preserveAspectRatio="none" width="100%" height="100%" overflow="visible" style="display: block;" viewBox="0 0 24 24" fill="none" xmlns="http://www.w3.org/2000/svg">
<g id="Frame" opacity="0.8">
<path id="Vector" d="M8.25 14.0053C8.54837 14.0053 8.83452 13.8868 9.0455 13.6758C9.25647 13.4648 9.375 13.1787 9.375 12.8803V12.75H14.625V13.0584C14.625 13.3568 14.7435 13.643 14.9545 13.8539C15.1655 14.0649 15.4516 14.1834 15.75 14.1834C16.0484 14.1834 16.3345 14.0649 16.5455 13.8539C16.7565 13.643 16.875 13.3568 16.875 13.0584V3C16.875 2.70163 16.7565 2.41548 16.5455 2.2045C16.3345 1.99353 16.0484 1.875 15.75 1.875C15.4516 1.875 15.1655 1.99353 14.9545 2.2045C14.7435 2.41548 14.625 2.70163 14.625 3V3.75H9.375V3C9.375 2.70163 9.25647 2.41548 9.0455 2.2045C8.83452 1.99353 8.54837 1.875 8.25 1.875C7.95163 1.875 7.66548 1.99353 7.4545 2.2045C7.24353 2.41548 7.125 2.70163 7.125 3V12.8803C7.125 13.1787 7.24353 13.4648 7.4545 13.6758C7.66548 13.8868 7.95163 14.0053 8.25 14.0053ZM9.375 10.5V9.375H14.625V10.5H9.375ZM14.625 6V7.125H9.375V6H14.625ZM1.875 15.375C1.875 15.0766 1.99353 14.7905 2.2045 14.5795C2.41548 14.3685 2.70163 14.25 3 14.25C4.46531 14.25 5.25 14.7703 5.87437 15.1875C6.38062 15.525 6.71812 15.75 7.5 15.75C8.28188 15.75 8.61844 15.5269 9.12562 15.1875C9.75281 14.7684 10.5319 14.25 11.9991 14.25C13.4662 14.25 14.2491 14.7703 14.8734 15.1875C15.3806 15.525 15.7172 15.75 16.5 15.75C17.2828 15.75 17.6194 15.5269 18.1256 15.1875C18.7537 14.7684 19.5319 14.25 21 14.25C21.2984 14.25 21.5845 14.3685 21.7955 14.5795C22.0065 14.7905 22.125 15.0766 22.125 15.375C22.125 15.6734 22.0065 15.9595 21.7955 16.1705C21.5845 16.3815 21.2984 16.5 21 16.5C20.2153 16.5 19.8806 16.7231 19.3734 17.0625C18.7462 17.4816 17.9672 18 16.5 18C15.0328 18 14.25 17.4797 13.6256 17.0625C13.1184 16.725 12.7819 16.5 11.9991 16.5C11.2162 16.5 10.8806 16.7231 10.3734 17.0625C9.74625 17.4816 8.96719 18 7.5 18C6.03281 18 5.25 17.4797 4.62563 17.0625C4.11938 16.725 3.78188 16.5 3 16.5C2.70163 16.5 2.41548 16.3815 2.2045 16.1705C1.99353 15.9595 1.875 15.6734 1.875 15.375ZM22.125 19.5C22.125 19.7984 22.0065 20.0845 21.7955 20.2955C21.5845 20.5065 21.2984 20.625 21 20.625C20.2153 20.625 19.8806 20.8481 19.3734 21.1875C18.7462 21.6066 17.9672 22.125 16.5 22.125C15.0328 22.125 14.25 21.6047 13.6256 21.1875C13.1184 20.85 12.7819 20.625 11.9991 20.625C11.2162 20.625 10.8806 20.8481 10.3734 21.1875C9.74625 21.6066 8.96719 22.125 7.5 22.125C6.03281 22.125 5.25 21.6047 4.62563 21.1875C4.11938 20.85 3.78188 20.625 3 20.625C2.70163 20.625 2.41548 20.5065 2.2045 20.2955C1.99353 20.0845 1.875 19.7984 1.875 19.5C1.875 19.2016 1.99353 18.9155 2.2045 18.7045C2.41548 18.4935 2.70163 18.375 3 18.375C4.46531 18.375 5.25 18.8953 5.87437 19.3125C6.38062 19.65 6.71812 19.875 7.5 19.875C8.28188 19.875 8.61844 19.6519 9.12562 19.3125C9.75281 18.8934 10.5319 18.375 11.9991 18.375C13.4662 18.375 14.2491 18.8953 14.8734 19.3125C15.3806 19.65 15.7172 19.875 16.5 19.875C17.2828 19.875 17.6194 19.6519 18.1256 19.3125C18.7537 18.8934 19.5319 18.375 21 18.375C21.2984 18.375 21.5845 18.4935 21.7955 18.7045C22.0065 18.9155 22.125 19.2016 22.125 19.5Z" fill="#ff9637"/>
</g>
</svg>
