<svg preserveAspectRatio="none" width="100%" height="100%" overflow="visible" style="display: block;" viewBox="0 0 24 24" fill="none" xmlns="http://www.w3.org/2000/svg">
<g id="Frame" opacity="0.8">
<path id="Vector" d="M18.4838 1.875C18.4397 1.875 18.3966 1.875 18.3534 1.875H6.75C6.05381 1.875 5.38613 2.15156 4.89384 2.64384C4.40156 3.13613 4.125 3.80381 4.125 4.5V20.25C4.125 20.7473 4.32254 21.2242 4.67417 21.5758C5.02581 21.9275 5.50272 22.125 6 22.125H15.75C16.2473 22.125 16.7242 21.9275 17.0758 21.5758C17.4275 21.2242 17.625 20.7473 17.625 20.25V4.875C17.625 4.67609 17.704 4.48532 17.8447 4.34467C17.9853 4.20402 18.1761 4.125 18.375 4.125H18.4078C18.607 4.14006 18.7928 4.23087 18.9271 4.37874C19.0613 4.52661 19.1339 4.72031 19.1297 4.92V13.875C19.1297 14.1734 19.2482 14.4595 19.4592 14.6705C19.6702 14.8815 19.9563 15 20.2547 15C20.5531 15 20.8392 14.8815 21.0502 14.6705C21.2612 14.4595 21.3797 14.1734 21.3797 13.875V4.92C21.3888 4.1352 21.0913 3.37783 20.5504 2.80911C20.0095 2.24039 19.268 1.90524 18.4838 1.875ZM6.75 4.125H15.4688C15.4062 4.37009 15.3747 4.62206 15.375 4.875V16.125H6.375V4.5C6.375 4.40054 6.41451 4.30516 6.48483 4.23484C6.55516 4.16451 6.65054 4.125 6.75 4.125ZM6.375 19.875V18.375H15.375V19.875H6.375Z" fill="#ff9637"/>
</g>
</svg>
