<svg preserveAspectRatio="none" width="100%" height="100%" overflow="visible" style="display: block;" viewBox="0 0 20.94 20" fill="none" xmlns="http://www.w3.org/2000/svg">
<g id="svgexport-6 1" clip-path="url(#clip0_0_4)">
<path id="ic_more_vert_24px" d="M10.47 5.00024C10.9645 5.00024 11.4478 4.85361 11.859 4.57889C12.2701 4.30418 12.5906 3.91371 12.7798 3.45687C12.969 3.00004 13.0185 2.49735 12.9221 2.01237C12.8256 1.52739 12.5875 1.08192 12.2379 0.732268C11.8882 0.38262 11.4427 0.144506 10.9577 0.0480387C10.4728 -0.0484289 9.97008 0.00108197 9.51325 0.19031C9.05641 0.379538 8.66594 0.699985 8.39123 1.11113C8.11651 1.52227 7.96988 2.00564 7.96988 2.50012C7.97189 3.16257 8.23594 3.79732 8.70437 4.26575C9.1728 4.73418 9.80755 4.99823 10.47 5.00024ZM10.47 7.50036C9.97552 7.50036 9.49215 7.64699 9.08101 7.9217C8.66987 8.19642 8.34942 8.58688 8.16019 9.04372C7.97096 9.50056 7.92145 10.0032 8.01792 10.4882C8.11439 10.9732 8.3525 11.4187 8.70215 11.7683C9.0518 12.118 9.49728 12.3561 9.98225 12.4526C10.4672 12.549 10.9699 12.4995 11.4268 12.3103C11.8836 12.1211 12.2741 11.8006 12.5488 11.3895C12.8235 10.9783 12.9701 10.495 12.9701 10.0005C12.9681 9.33802 12.7041 8.70327 12.2356 8.23484C11.7672 7.76642 11.1325 7.50237 10.47 7.50036ZM10.47 15.0007C9.97552 15.0007 9.49215 15.1473 9.08101 15.4221C8.66987 15.6968 8.34942 16.0872 8.16019 16.5441C7.97096 17.0009 7.92145 17.5036 8.01792 17.9886C8.11439 18.4736 8.3525 18.919 8.70215 19.2687C9.0518 19.6183 9.49728 19.8564 9.98225 19.9529C10.4672 20.0494 10.9699 19.9999 11.4268 19.8106C11.8836 19.6214 12.2741 19.301 12.5488 18.8898C12.8235 18.4787 12.9701 17.9953 12.9701 17.5008C12.9684 16.8382 12.7044 16.2032 12.236 15.7346C11.7675 15.266 11.1326 15.0027 10.47 15.0007Z" fill="var(--fill-0, white)"/>
</g>
<defs>
<clipPath id="clip0_0_4">
<rect width="20.94" height="20" fill="white"/>
</clipPath>
</defs>
</svg>
