<svg preserveAspectRatio="none" width="100%" height="100%" overflow="visible" style="display: block;" viewBox="0 0 36 36" fill="none" xmlns="http://www.w3.org/2000/svg">
<g id="Frame">
<path id="Vector" d="M29.8125 9.5625H5.0625V6.75C5.0625 6.30245 4.88471 5.87322 4.56824 5.55676C4.25178 5.24029 3.82255 5.0625 3.375 5.0625C2.92745 5.0625 2.49822 5.24029 2.18176 5.55676C1.86529 5.87322 1.6875 6.30245 1.6875 6.75V29.25C1.6875 29.6976 1.86529 30.1268 2.18176 30.4432C2.49822 30.7597 2.92745 30.9375 3.375 30.9375C3.82255 30.9375 4.25178 30.7597 4.56824 30.4432C4.88471 30.1268 5.0625 29.6976 5.0625 29.25V25.3125H32.625V29.25C32.625 29.6976 32.8028 30.1268 33.1193 30.4432C33.4357 30.7597 33.8649 30.9375 34.3125 30.9375C34.7601 30.9375 35.1893 30.7597 35.5057 30.4432C35.8222 30.1268 36 29.6976 36 29.25V15.75C35.9981 14.1095 35.3456 12.5368 34.1857 11.3768C33.0257 10.2169 31.453 9.56436 29.8125 9.5625ZM14.0625 21.9375H5.0625V12.9375H14.0625V21.9375ZM32.625 21.9375H17.4375V12.9375H29.8125C30.5584 12.9375 31.2738 13.2338 31.8012 13.7613C32.3287 14.2887 32.625 15.0041 32.625 15.75V21.9375Z" fill="#8CE852"/>
</g>
</svg>
