<svg preserveAspectRatio="none" width="100%" height="100%" overflow="visible" style="display: block;" viewBox="0 0 36 36" fill="none" xmlns="http://www.w3.org/2000/svg">
<g id="Frame">
<path id="Vector" d="M11.1811 20.3189C11.0241 20.1619 10.8996 19.9756 10.8147 19.7705C10.7297 19.5654 10.686 19.3456 10.686 19.1236C10.686 18.9016 10.7297 18.6818 10.8147 18.4767C10.8996 18.2716 11.0241 18.0853 11.1811 17.9283C11.3381 17.7713 11.5244 17.6468 11.7295 17.5618C11.9346 17.4769 12.1544 17.4332 12.3764 17.4332C12.5984 17.4332 12.8182 17.4769 13.0233 17.5618C13.2284 17.6468 13.4147 17.7713 13.5717 17.9283L15.75 20.1094L22.4311 13.4269C22.7481 13.1099 23.1781 12.9318 23.6264 12.9318C24.0747 12.9318 24.5047 13.1099 24.8217 13.4269C25.1387 13.7439 25.3168 14.1739 25.3168 14.6222C25.3168 15.0705 25.1387 15.5005 24.8217 15.8175L16.9467 23.6925C16.7899 23.8498 16.6037 23.9746 16.3985 24.0598C16.1934 24.145 15.9735 24.1888 15.7514 24.1888C15.5293 24.1888 15.3094 24.145 15.1043 24.0598C14.8992 23.9746 14.7129 23.8498 14.5561 23.6925L11.1811 20.3189ZM32.0625 6.75V29.25C32.0625 29.9959 31.7662 30.7113 31.2387 31.2387C30.7113 31.7662 29.9959 32.0625 29.25 32.0625H6.75C6.00408 32.0625 5.28871 31.7662 4.76126 31.2387C4.23382 30.7113 3.9375 29.9959 3.9375 29.25V6.75C3.9375 6.00408 4.23382 5.28871 4.76126 4.76126C5.28871 4.23382 6.00408 3.9375 6.75 3.9375H29.25C29.9959 3.9375 30.7113 4.23382 31.2387 4.76126C31.7662 5.28871 32.0625 6.00408 32.0625 6.75ZM28.6875 7.3125H7.3125V28.6875H28.6875V7.3125Z" fill="#8CE852"/>
</g>
</svg>
