<svg preserveAspectRatio="none" width="100%" height="100%" overflow="visible" style="display: block;" viewBox="0 0 36 36" fill="none" xmlns="http://www.w3.org/2000/svg">
<g id="Frame">
<path id="Vector" d="M34.1719 13.5C33.9975 12.9618 33.6674 12.4875 33.2233 12.1371C32.7792 11.7866 32.2411 11.5758 31.6772 11.5312L23.7192 10.8886L20.648 3.46219C20.4321 2.93732 20.0652 2.48843 19.5937 2.17254C19.1222 1.85664 18.5675 1.68798 18 1.68798C17.4325 1.68798 16.8778 1.85664 16.4063 2.17254C15.9348 2.48843 15.5679 2.93732 15.352 3.46219L12.2836 10.89L4.32563 11.5312C3.76062 11.5778 3.222 11.7904 2.77744 12.1422C2.33288 12.494 2.00222 12.9693 1.827 13.5085C1.65179 14.0477 1.63984 14.6266 1.79267 15.1725C1.94549 15.7185 2.25627 16.207 2.68594 16.5769L8.75812 21.8137L6.90188 29.6466C6.76649 30.1988 6.79852 30.7789 6.99388 31.3128C7.18924 31.8468 7.5391 32.3106 7.99891 32.6451C8.45872 32.9796 9.00767 33.1696 9.57587 33.1911C10.1441 33.2126 10.7058 33.0645 11.1895 32.7656L18 28.5736L24.8105 32.7656C25.2941 33.0625 25.8549 33.2091 26.4219 33.1871C26.9889 33.165 27.5366 32.9752 27.9957 32.6417C28.4548 32.3082 28.8046 31.846 29.0008 31.3136C29.1971 30.7811 29.2309 30.2025 29.0981 29.6508L27.2419 21.818L33.3141 16.5811C33.7463 16.2104 34.0586 15.7195 34.2113 15.1709C34.3641 14.6224 34.3503 14.0408 34.1719 13.5ZM24.262 19.9266C24.0279 20.1284 23.8537 20.3907 23.7585 20.6848C23.6632 20.979 23.6506 21.2936 23.722 21.5944L25.5347 29.25L18.8845 25.1606C18.6185 24.9969 18.3123 24.9102 18 24.9102C17.6877 24.9102 17.3815 24.9969 17.1155 25.1606L10.4653 29.25L12.278 21.6C12.3494 21.2992 12.3368 20.9846 12.2415 20.6905C12.1463 20.3964 11.9721 20.1341 11.738 19.9322L5.79375 14.7994L13.5844 14.1708C13.8944 14.1459 14.1915 14.0358 14.4429 13.8526C14.6943 13.6695 14.8902 13.4204 15.0089 13.133L18 5.89078L20.9911 13.133C21.1098 13.4204 21.3057 13.6695 21.5571 13.8526C21.8085 14.0358 22.1056 14.1459 22.4156 14.1708L30.2062 14.7994L24.262 19.9266Z" fill="#8CE852"/>
</g>
</svg>
