<svg preserveAspectRatio="none" width="100%" height="100%" overflow="visible" style="display: block;" viewBox="0 0 12 12" fill="none" xmlns="http://www.w3.org/2000/svg">
<g id="Frame">
<path id="Vector" d="M3.00562 6.92813C3.0069 6.95353 3.00299 6.97892 2.99414 7.00276C2.98528 7.0266 2.97167 7.04839 2.95414 7.06681C2.9366 7.08523 2.91549 7.09988 2.89211 7.10989C2.86873 7.11989 2.84356 7.12503 2.81812 7.125H0.75C0.66536 7.12513 0.583166 7.09662 0.516784 7.04411C0.450402 6.9916 0.403736 6.91818 0.384375 6.83578C0.372319 6.77938 0.372875 6.72102 0.386003 6.66486C0.39913 6.60871 0.424505 6.55614 0.460312 6.51094C0.79116 6.07218 1.23014 5.72671 1.73437 5.50828C1.513 5.30644 1.34321 5.05449 1.23922 4.77353C1.13524 4.49258 1.10009 4.19079 1.13672 3.89346C1.17336 3.59613 1.2807 3.3119 1.44977 3.06459C1.61883 2.81727 1.8447 2.61407 2.10845 2.47199C2.3722 2.32992 2.66615 2.25311 2.96569 2.248C3.26523 2.2429 3.56163 2.30964 3.83007 2.44264C4.09851 2.57564 4.33117 2.77102 4.50857 3.01243C4.68597 3.25384 4.80294 3.53424 4.84969 3.83016C4.85572 3.86995 4.8486 3.91062 4.82939 3.94599C4.81018 3.98136 4.77994 4.00949 4.74328 4.02609C4.22315 4.26655 3.78266 4.65077 3.47377 5.13341C3.16488 5.61605 3.00049 6.17698 3 6.75C3 6.81 3 6.86906 3.00562 6.92813ZM11.5369 6.51047C11.2068 6.07222 10.7688 5.72694 10.2656 5.50828C10.487 5.30644 10.6568 5.05449 10.7608 4.77353C10.8648 4.49258 10.8999 4.19079 10.8633 3.89346C10.8266 3.59613 10.7193 3.3119 10.5502 3.06459C10.3812 2.81727 10.1553 2.61407 9.89155 2.47199C9.6278 2.32992 9.33385 2.25311 9.03431 2.248C8.73477 2.2429 8.43837 2.30964 8.16993 2.44264C7.90149 2.57564 7.66883 2.77102 7.49143 3.01243C7.31403 3.25384 7.19706 3.53424 7.15031 3.83016C7.14428 3.86995 7.1514 3.91062 7.17061 3.94599C7.18982 3.98136 7.22005 4.00949 7.25672 4.02609C7.77685 4.26655 8.21734 4.65077 8.52623 5.13341C8.83512 5.61605 8.99951 6.17698 9 6.75C9 6.81 9 6.86906 8.99437 6.92813C8.9931 6.95353 8.99701 6.97892 9.00586 7.00276C9.01472 7.0266 9.02832 7.04839 9.04586 7.06681C9.0634 7.08523 9.08451 7.09988 9.10789 7.10989C9.13127 7.11989 9.15644 7.12503 9.18187 7.125H11.25C11.3346 7.12513 11.4168 7.09662 11.4832 7.04411C11.5496 6.9916 11.5963 6.91818 11.6156 6.83578C11.6278 6.77928 11.6272 6.72079 11.614 6.66454C11.6008 6.60828 11.5752 6.55566 11.5392 6.51047H11.5369ZM7.365 8.53453C7.73838 8.24858 8.01277 7.85281 8.14961 7.40286C8.28645 6.9529 8.27885 6.47138 8.12788 6.02596C7.97692 5.58055 7.69017 5.19364 7.30795 4.91961C6.92573 4.64558 6.46725 4.49821 5.99695 4.49821C5.52665 4.49821 5.06817 4.64558 4.68595 4.91961C4.30373 5.19364 4.01699 5.58055 3.86602 6.02596C3.71506 6.47138 3.70746 6.9529 3.84429 7.40286C3.98113 7.85281 4.25552 8.24858 4.62891 8.53453C3.96635 8.82161 3.41309 9.31326 3.05016 9.9375C3.01724 9.99451 2.99991 10.0592 2.99992 10.125C2.99992 10.1909 3.01725 10.2555 3.05018 10.3125C3.0831 10.3695 3.13045 10.4169 3.18747 10.4498C3.24449 10.4827 3.30917 10.5 3.375 10.5H8.625C8.69083 10.5 8.75551 10.4827 8.81253 10.4498C8.86955 10.4169 8.9169 10.3695 8.94982 10.3125C8.98274 10.2555 9.00008 10.1909 9.00008 10.125C9.00009 10.0592 8.98276 9.99451 8.94984 9.9375C8.58613 9.31285 8.03185 8.82116 7.36828 8.53453H7.365Z" fill="var(--fill-0, black)"/>
</g>
</svg>
