<svg preserveAspectRatio="none" width="100%" height="100%" overflow="visible" style="display: block;" viewBox="0 0 12 12" fill="none" xmlns="http://www.w3.org/2000/svg">
<g id="Frame">
<path id="Vector" d="M10.5748 10.3125C10.5419 10.3695 10.4946 10.4169 10.4375 10.4498C10.3805 10.4827 10.3158 10.5 10.25 10.5H1.24998C1.18419 10.4999 1.11957 10.4825 1.06262 10.4496C1.00566 10.4167 0.958378 10.3693 0.925511 10.3123C0.892643 10.2553 0.875349 10.1907 0.875366 10.1249C0.875383 10.0591 0.89271 9.99447 0.925607 9.93749C1.63951 8.70327 2.73967 7.81827 4.02358 7.39874C3.3885 7.02068 2.89508 6.44459 2.6191 5.75896C2.34312 5.07333 2.29983 4.31606 2.49589 3.60344C2.69195 2.89083 3.11651 2.26227 3.70437 1.8143C4.29223 1.36633 5.01089 1.12372 5.74998 1.12372C6.48907 1.12372 7.20773 1.36633 7.7956 1.8143C8.38346 2.26227 8.80802 2.89083 9.00407 3.60344C9.20013 4.31606 9.15684 5.07333 8.88086 5.75896C8.60488 6.44459 8.11147 7.02068 7.47639 7.39874C8.76029 7.81827 9.86045 8.70327 10.5744 9.93749C10.6073 9.99446 10.6247 10.0591 10.6248 10.1249C10.6249 10.1908 10.6077 10.2554 10.5748 10.3125Z" fill="var(--fill-0, black)"/>
</g>
</svg>
