<svg preserveAspectRatio="none" width="100%" height="100%" overflow="visible" style="display: block;" viewBox="0 0 24 24" fill="none" xmlns="http://www.w3.org/2000/svg">
<g id="Frame" opacity="0.8">
<path id="Vector" d="M12 3.375C10.1458 3.375 8.33324 3.92483 6.79153 4.95497C5.24982 5.98511 4.0482 7.44929 3.33863 9.16234C2.62906 10.8754 2.4434 12.7604 2.80514 14.579C3.16687 16.3975 4.05976 18.068 5.37087 19.3791C6.68199 20.6902 8.35246 21.5831 10.171 21.9449C11.9896 22.3066 13.8746 22.1209 15.5877 21.4114C17.3007 20.7018 18.7649 19.5002 19.795 17.9585C20.8252 16.4168 21.375 14.6042 21.375 12.75C21.3723 10.2644 20.3837 7.88145 18.6261 6.12389C16.8686 4.36633 14.4856 3.37773 12 3.375ZM12 19.875C10.5908 19.875 9.21326 19.4571 8.04156 18.6742C6.86986 17.8913 5.95663 16.7785 5.41736 15.4766C4.87808 14.1747 4.73699 12.7421 5.0119 11.36C5.28682 9.97787 5.96542 8.70831 6.96186 7.71186C7.95831 6.71541 9.22787 6.03682 10.61 5.7619C11.9921 5.48698 13.4247 5.62808 14.7266 6.16736C16.0285 6.70663 17.1413 7.61986 17.9242 8.79156C18.7071 9.96326 19.125 11.3408 19.125 12.75C19.123 14.6391 18.3717 16.4502 17.0359 17.7859C15.7002 19.1217 13.8891 19.873 12 19.875ZM3.04594 6.79594C2.94129 6.90058 2.81706 6.9836 2.68033 7.04023C2.5436 7.09686 2.39706 7.12601 2.24906 7.12601C2.10107 7.12601 1.95452 7.09686 1.8178 7.04023C1.68107 6.9836 1.55683 6.90058 1.45219 6.79594C1.34754 6.69129 1.26453 6.56706 1.2079 6.43033C1.15126 6.2936 1.12211 6.14706 1.12211 5.99906C1.12211 5.85107 1.15126 5.70452 1.2079 5.5678C1.26453 5.43107 1.34754 5.30683 1.45219 5.20219L4.45219 2.20219C4.66353 1.99084 4.95018 1.87211 5.24906 1.87211C5.54795 1.87211 5.83459 1.99084 6.04594 2.20219C6.25728 2.41353 6.37601 2.70018 6.37601 2.99906C6.37601 3.29795 6.25728 3.58459 6.04594 3.79594L3.04594 6.79594ZM22.5459 6.79594C22.4414 6.90082 22.3172 6.98403 22.1805 7.04081C22.0437 7.0976 21.8971 7.12682 21.7491 7.12682C21.601 7.12682 21.4544 7.0976 21.3176 7.04081C21.1809 6.98403 21.0567 6.90082 20.9522 6.79594L17.9522 3.79594C17.8475 3.69129 17.7645 3.56706 17.7079 3.43033C17.6513 3.2936 17.6221 3.14706 17.6221 2.99906C17.6221 2.85107 17.6513 2.70452 17.7079 2.5678C17.7645 2.43107 17.8475 2.30683 17.9522 2.20219C18.0568 2.09754 18.1811 2.01453 18.3178 1.9579C18.4545 1.90126 18.6011 1.87211 18.7491 1.87211C18.8971 1.87211 19.0436 1.90126 19.1803 1.9579C19.3171 2.01453 19.4413 2.09754 19.5459 2.20219L22.5459 5.20219C22.6508 5.3067 22.734 5.4309 22.7908 5.56764C22.8476 5.70439 22.8768 5.851 22.8768 5.99906C22.8768 6.14713 22.8476 6.29374 22.7908 6.43048C22.734 6.56723 22.6508 6.69142 22.5459 6.79594ZM16.5 11.625C16.7984 11.625 17.0845 11.7435 17.2955 11.9545C17.5065 12.1655 17.625 12.4516 17.625 12.75C17.625 13.0484 17.5065 13.3345 17.2955 13.5455C17.0845 13.7565 16.7984 13.875 16.5 13.875H12C11.7016 13.875 11.4155 13.7565 11.2045 13.5455C10.9935 13.3345 10.875 13.0484 10.875 12.75V8.25C10.875 7.95163 10.9935 7.66548 11.2045 7.4545C11.4155 7.24353 11.7016 7.125 12 7.125C12.2984 7.125 12.5845 7.24353 12.7955 7.4545C13.0065 7.66548 13.125 7.95163 13.125 8.25V11.625H16.5Z" fill="var(--fill-0, white)"/>
</g>
</svg>
