<svg preserveAspectRatio="none" width="100%" height="100%" overflow="visible" style="display: block;" viewBox="0 0 24 24" fill="none" xmlns="http://www.w3.org/2000/svg">
<g id="Frame" opacity="0.8">
<path id="Vector" d="M14.4094 1.15219C14.3359 0.926311 14.1929 0.72947 14.0008 0.589862C13.8086 0.450253 13.5772 0.375041 13.3397 0.375H9.15844C8.92092 0.375041 8.68952 0.450253 8.49737 0.589862C8.30522 0.72947 8.16218 0.926311 8.08875 1.15219C7.51173 3.00337 7.06193 4.89184 6.7425 6.80438C6.045 11.055 6.34125 14.1037 7.62094 15.8662C8.22177 16.706 9.115 17.2905 10.125 17.505V21.375H9C8.70163 21.375 8.41548 21.4935 8.2045 21.7045C7.99353 21.9155 7.875 22.2016 7.875 22.5C7.875 22.7984 7.99353 23.0845 8.2045 23.2955C8.41548 23.5065 8.70163 23.625 9 23.625H13.5C13.7984 23.625 14.0845 23.5065 14.2955 23.2955C14.5065 23.0845 14.625 22.7984 14.625 22.5C14.625 22.2016 14.5065 21.9155 14.2955 21.7045C14.0845 21.4935 13.7984 21.375 13.5 21.375H12.375V17.505C13.3847 17.2903 14.2775 16.7058 14.8781 15.8662C16.1587 14.1037 16.4541 11.055 15.7566 6.80438C15.4368 4.89182 14.9867 3.00335 14.4094 1.15219ZM12.5025 2.625C12.6975 3.30469 12.9844 4.37813 13.245 5.625H9.25312C9.51375 4.37813 9.80063 3.30469 9.99563 2.625H12.5025ZM13.0566 14.5444C12.6441 15.1069 12.0703 15.375 11.2491 15.375C10.4278 15.375 9.85406 15.1106 9.44156 14.5444C8.61375 13.4062 8.41031 11.0513 8.85562 7.875H13.6425C14.0878 11.0513 13.8844 13.4062 13.0566 14.5444ZM22.5 5.25C22.5 5.54667 22.412 5.83668 22.2472 6.08336C22.0824 6.33003 21.8481 6.52229 21.574 6.63582C21.2999 6.74935 20.9983 6.77906 20.7074 6.72118C20.4164 6.6633 20.1491 6.52044 19.9393 6.31066C19.7296 6.10088 19.5867 5.83361 19.5288 5.54264C19.4709 5.25166 19.5006 4.95006 19.6142 4.67597C19.7277 4.40189 19.92 4.16762 20.1666 4.0028C20.4133 3.83797 20.7033 3.75 21 3.75C21.3978 3.75 21.7794 3.90804 22.0607 4.18934C22.342 4.47064 22.5 4.85218 22.5 5.25ZM16.875 1.875C16.875 1.57833 16.963 1.28832 17.1278 1.04164C17.2926 0.794971 17.5269 0.602712 17.801 0.489181C18.0751 0.375649 18.3767 0.345944 18.6676 0.403822C18.9586 0.4617 19.2259 0.604561 19.4357 0.81434C19.6454 1.02412 19.7883 1.29139 19.8462 1.58236C19.9041 1.87334 19.8744 2.17494 19.7608 2.44903C19.6473 2.72311 19.455 2.95738 19.2084 3.1222C18.9617 3.28703 18.6717 3.375 18.375 3.375C17.9772 3.375 17.5956 3.21696 17.3143 2.93566C17.033 2.65436 16.875 2.27282 16.875 1.875ZM20.25 9.75C20.25 10.0467 20.162 10.3367 19.9972 10.5834C19.8324 10.83 19.5981 11.0223 19.324 11.1358C19.0499 11.2494 18.7483 11.2791 18.4574 11.2212C18.1664 11.1633 17.8991 11.0204 17.6893 10.8107C17.4796 10.6009 17.3367 10.3336 17.2788 10.0426C17.2209 9.75166 17.2506 9.45006 17.3642 9.17598C17.4777 8.90189 17.67 8.66762 17.9166 8.5028C18.1633 8.33797 18.4533 8.25 18.75 8.25C19.1478 8.25 19.5294 8.40804 19.8107 8.68934C20.092 8.97064 20.25 9.35218 20.25 9.75Z" fill="var(--fill-0, white)"/>
</g>
</svg>
