<svg preserveAspectRatio="none" width="100%" height="100%" overflow="visible" style="display: block;" viewBox="0 0 24 24" fill="none" xmlns="http://www.w3.org/2000/svg">
<g id="Frame">
<path id="Vector" d="M2.25 16.875H21.75C22.0484 16.875 22.3345 16.7565 22.5455 16.5455C22.7565 16.3345 22.875 16.0484 22.875 15.75C22.875 15.4516 22.7565 15.1655 22.5455 14.9545C22.3345 14.7435 22.0484 14.625 21.75 14.625H21.3666C21.2746 12.4008 20.3954 10.2816 18.8859 8.64553C17.3763 7.00944 15.3346 5.96286 13.125 5.6925V4.125H14.25C14.5484 4.125 14.8345 4.00647 15.0455 3.7955C15.2565 3.58452 15.375 3.29837 15.375 3C15.375 2.70163 15.2565 2.41548 15.0455 2.2045C14.8345 1.99353 14.5484 1.875 14.25 1.875H9.75C9.45163 1.875 9.16548 1.99353 8.9545 2.2045C8.74353 2.41548 8.625 2.70163 8.625 3C8.625 3.29837 8.74353 3.58452 8.9545 3.7955C9.16548 4.00647 9.45163 4.125 9.75 4.125H10.875V5.6925C8.66538 5.96286 6.62368 7.00944 5.11414 8.64553C3.6046 10.2816 2.72542 12.4008 2.63344 14.625H2.25C1.95163 14.625 1.66548 14.7435 1.4545 14.9545C1.24353 15.1655 1.125 15.4516 1.125 15.75C1.125 16.0484 1.24353 16.3345 1.4545 16.5455C1.66548 16.7565 1.95163 16.875 2.25 16.875ZM12 7.875C13.8241 7.87716 15.578 8.57799 16.9013 9.83344C18.2246 11.0889 19.0166 12.8036 19.1147 14.625H4.88531C4.98336 12.8036 5.77543 11.0889 7.09871 9.83344C8.42199 8.57799 10.1759 7.87716 12 7.875ZM22.875 19.5C22.875 19.7984 22.7565 20.0845 22.5455 20.2955C22.3345 20.5065 22.0484 20.625 21.75 20.625H2.25C1.95163 20.625 1.66548 20.5065 1.4545 20.2955C1.24353 20.0845 1.125 19.7984 1.125 19.5C1.125 19.2016 1.24353 18.9155 1.4545 18.7045C1.66548 18.4935 1.95163 18.375 2.25 18.375H21.75C22.0484 18.375 22.3345 18.4935 22.5455 18.7045C22.7565 18.9155 22.875 19.2016 22.875 19.5Z" fill="var(--fill-0, white)"/>
</g>
</svg>
