<svg preserveAspectRatio="none" width="100%" height="100%" overflow="visible" style="display: block;" viewBox="0 0 24 24" fill="none" xmlns="http://www.w3.org/2000/svg">
<g id="Frame">
<path id="Vector" d="M21.3656 14.3175L17.6437 15.6713L14.2931 14.3306C14.0247 14.2232 13.7253 14.2232 13.4569 14.3306L10.125 15.6638L6.79313 14.3306C6.53634 14.2277 6.25064 14.2231 5.99063 14.3175L1.86562 15.8175C1.72675 15.868 1.59918 15.9453 1.4902 16.0451C1.38121 16.1449 1.29295 16.2651 1.23044 16.399C1.1042 16.6694 1.09056 16.9789 1.1925 17.2594C1.29444 17.5398 1.50362 17.7683 1.77403 17.8946C2.04443 18.0208 2.35391 18.0344 2.63437 17.9325L3.39563 17.6559C3.49758 18.6741 3.97383 19.6182 4.73212 20.3053C5.4904 20.9924 6.47673 21.3736 7.5 21.375H16.5C17.5936 21.3738 18.6421 20.9388 19.4154 20.1654C20.1888 19.3921 20.6238 18.3436 20.625 17.25V16.9809L22.1344 16.4325C22.2732 16.382 22.4008 16.3047 22.5098 16.2049C22.6188 16.1051 22.7071 15.9849 22.7696 15.851C22.8321 15.7171 22.8676 15.5722 22.8741 15.4246C22.8806 15.277 22.858 15.1295 22.8075 14.9906C22.757 14.8518 22.6797 14.7242 22.5799 14.6152C22.4801 14.5062 22.3599 14.4179 22.226 14.3554C22.0921 14.2929 21.9472 14.2574 21.7996 14.2509C21.652 14.2444 21.5045 14.267 21.3656 14.3175ZM16.5 19.125H7.5C7.00272 19.125 6.52581 18.9275 6.17417 18.5758C5.82254 18.2242 5.625 17.7473 5.625 17.25V16.845L6.35625 16.5787L9.70688 17.9194C9.97527 18.0268 10.2747 18.0268 10.5431 17.9194L13.875 16.5862L17.2069 17.9194C17.4637 18.0223 17.7494 18.0269 18.0094 17.9325L18.2803 17.8331C18.1575 18.2085 17.9192 18.5356 17.5995 18.7676C17.2798 18.9995 16.895 19.1246 16.5 19.125ZM1.125 12C1.125 11.7016 1.24353 11.4155 1.4545 11.2045C1.66548 10.9935 1.95163 10.875 2.25 10.875H21.75C22.0484 10.875 22.3345 10.9935 22.5455 11.2045C22.7565 11.4155 22.875 11.7016 22.875 12C22.875 12.2984 22.7565 12.5845 22.5455 12.7955C22.3345 13.0065 22.0484 13.125 21.75 13.125H2.25C1.95163 13.125 1.66548 13.0065 1.4545 12.7955C1.24353 12.5845 1.125 12.2984 1.125 12ZM4.51875 9.75H19.4812C19.7802 9.74976 20.0749 9.6793 20.3416 9.54431C20.6084 9.40932 20.8397 9.21356 21.0169 8.97281C21.19 8.73823 21.3048 8.46581 21.3517 8.17808C21.3987 7.89034 21.3764 7.59557 21.2869 7.31812C20.2612 4.11375 16.4428 1.875 12 1.875C7.55719 1.875 3.73969 4.11281 2.71312 7.31719C2.62333 7.5946 2.60099 7.88942 2.64795 8.17719C2.6949 8.46497 2.80981 8.7374 2.98312 8.97187C3.16004 9.21301 3.39125 9.40911 3.65803 9.54429C3.92481 9.67948 4.21967 9.74995 4.51875 9.75ZM12 4.125C15.1594 4.125 17.9634 5.51719 18.9375 7.5H5.0625C6.0375 5.51719 8.84156 4.125 12 4.125Z" fill="var(--fill-0, white)"/>
</g>
</svg>
